<svg id="Logo" xmlns="http://www.w3.org/2000/svg" viewBox="30 0 271 271"><defs><style>.cls-1{fill-rule:evenodd;}</style></defs><circle cx="248.6" cy="84.86" r="25.32"/><path class="cls-1" d="M146.06,157.5c-1.52-1-5.88-6.78-17.81-35.36-.75-1.8-1.45-3.34-2.11-4.67l-2.44-5.9-21-50.64h-42l21,50.64,21,50.64L122.1,209a1.74,1.74,0,0,0,3.21,0l21.08-50.46A.88.88,0,0,0,146.06,157.5Z"/><path class="cls-1" d="M224.66,157.5c-1.52-1-5.88-6.79-17.81-35.37-.75-1.79-1.45-3.33-2.11-4.66l-2.44-5.9-21-50.64H139.37l21,50.64,21,50.64L200.7,209a1.74,1.74,0,0,0,3.21,0L225,158.54A.88.88,0,0,0,224.66,157.5Z"/></svg>